<svg xmlns="http://www.w3.org/2000/svg" height="779pt" version="1.1" viewBox="-97 1 779 779.69725" width="779pt">
<g id="surface1">
<path d="M 292.394531 467.308594 C 236.15625 467.308594 184.246094 428.105469 157.207031 364.972656 L 154.910156 366.1875 L 153.285156 366.1875 C 151.164062 366.714844 148.988281 366.984375 146.796875 367 C 128.683594 367 110.566406 349.832031 102.589844 325.359375 C 93.261719 296.699219 101.644531 268.308594 121.113281 261.957031 C 123.597656 261.144531 126.195312 260.742188 128.816406 260.742188 C 131.941406 260.78125 135.035156 261.28125 138.011719 262.226562 C 138.011719 248.707031 138.011719 236.542969 139.363281 224.914062 L 140.847656 203.421875 L 159.503906 214.101562 C 196.085938 235.054688 237.535156 246.019531 279.6875 245.871094 L 304.96875 245.871094 C 347.105469 246.058594 388.554688 235.148438 425.152344 214.234375 L 443.808594 203.554688 L 445.296875 225.050781 C 446.105469 236.675781 446.511719 248.84375 446.648438 262.363281 C 449.621094 261.402344 452.71875 260.902344 455.839844 260.875 C 458.410156 260.890625 460.964844 261.292969 463.410156 262.09375 C 483.011719 268.445312 491.394531 296.835938 482.066406 325.496094 C 474.226562 349.832031 455.703125 367.539062 438.128906 367.539062 C 435.699219 367.550781 433.289062 367.1875 430.964844 366.457031 L 429.75 366.457031 L 427.179688 365.105469 C 400.546875 428.105469 348.636719 467.308594 292.394531 467.308594 Z M 292.394531 467.308594 " style=" stroke:none;fill-rule:nonzero;fill:rgb(100%,81.568627%,54.509804%);fill-opacity:1;" />
<path d="M 292.394531 453.789062 C 343.089844 453.789062 390.136719 417.695312 415.148438 359.15625 C 418.109375 352.304688 426.070312 349.152344 432.925781 352.113281 C 433.046875 352.167969 433.15625 352.210938 433.261719 352.261719 L 435.289062 353.34375 C 444.753906 356.320312 462.328125 344.152344 469.359375 321.167969 C 476.386719 298.1875 470.035156 278.3125 459.355469 274.800781 C 456.542969 273.894531 453.511719 273.894531 450.703125 274.800781 C 443.578125 277.042969 435.992188 273.082031 433.75 265.957031 C 433.34375 264.660156 433.125 263.308594 433.125 261.957031 C 433.125 248.4375 433.125 236.269531 431.773438 225.453125 C 393.179688 247.558594 349.445312 259.128906 304.96875 258.980469 L 279.554688 258.980469 C 235.035156 259.144531 191.246094 247.585938 152.609375 225.453125 C 151.933594 236.40625 151.394531 248.300781 151.257812 261.957031 C 151.230469 269.417969 145.148438 275.449219 137.6875 275.421875 C 136.335938 275.421875 134.980469 275.207031 133.683594 274.800781 C 130.832031 273.894531 127.75 273.894531 124.898438 274.800781 C 114.21875 278.179688 107.59375 298.1875 115.027344 321.167969 C 122.464844 344.152344 138.820312 355.914062 149.5 353.074219 L 151.125 352.261719 C 157.898438 349.113281 165.941406 352.046875 169.089844 358.820312 C 169.144531 358.925781 169.199219 359.046875 169.238281 359.15625 C 194.65625 417.695312 241.699219 453.789062 292.394531 453.789062 Z M 292.394531 453.789062 " style=" stroke:none;fill-rule:nonzero;fill:rgb(100%,81.568627%,54.509804%);fill-opacity:1;" />
<path d="M 135.308594 198.285156 L 131.65625 195.578125 C 117.460938 184.871094 104.375 172.785156 92.585938 159.484375 L 82.71875 148.265625 L 94.75 139.613281 C 120.707031 120.820312 135.308594 82.425781 140.039062 66.746094 L 143.6875 57.011719 L 159.101562 57.011719 C 203.929688 57.835938 247.921875 44.695312 284.960938 19.429688 L 292.398438 14.019531 L 300.375 19.699219 C 337.199219 45.101562 381.09375 58.253906 425.828125 57.28125 L 441.78125 57.28125 L 444.890625 66.878906 C 449.890625 82.5625 464.222656 120.957031 490.3125 139.746094 L 502.34375 148.398438 L 492.613281 159.621094 C 480.851562 172.949219 467.75 185.035156 453.542969 195.714844 L 449.890625 198.417969 Z M 259.953125 104.460938 C 263.195312 120.414062 271.847656 149.34375 292.398438 155.023438 C 312.945312 149.34375 321.597656 120.414062 324.84375 104.460938 C 313.082031 99.988281 302.128906 93.648438 292.398438 85.671875 C 282.675781 93.648438 271.710938 99.988281 259.953125 104.460938 Z M 259.953125 104.460938 " style=" stroke:none;fill-rule:nonzero;fill:rgb(27.45098%,40.784314%,55.686275%);fill-opacity:1;" />
<path d="M 445.160156 184.765625 C 458.449219 174.609375 470.667969 163.160156 481.660156 150.5625 C 452.867188 129.875 437.453125 89.996094 431.371094 70.796875 C 381.917969 72.855469 333.140625 58.753906 292.394531 30.648438 C 253.109375 57.808594 206.308594 71.988281 158.558594 71.203125 L 153.015625 71.203125 C 146.933594 90.398438 131.386719 130.148438 102.726562 150.964844 C 113.945312 163.621094 126.398438 175.125 139.902344 185.304688 Z M 292.394531 67.148438 C 305.308594 80.734375 321.8125 90.402344 339.984375 95 C 339.984375 95 334.167969 161.242188 292.394531 168.8125 C 250.621094 161.242188 244.808594 95 244.808594 95 C 262.992188 90.386719 279.484375 80.738281 292.394531 67.148438 Z M 292.394531 67.148438 " style=" stroke:none;fill-rule:nonzero;fill:rgb(27.45098%,40.784314%,55.686275%);fill-opacity:1;" />
<path d="M 279.824219 246.140625 C 245.09375 246.195312 210.769531 238.664062 179.242188 224.105469 L 184.246094 198.285156 L 400.546875 198.285156 L 406.226562 224.105469 C 374.660156 238.691406 340.28125 246.207031 305.507812 246.140625 Z M 279.824219 246.140625 " style=" stroke:none;fill-rule:nonzero;fill:rgb(27.45098%,40.784314%,55.686275%);fill-opacity:1;" />
<path d="M 292.394531 232.351562 L 305.914062 232.351562 C 338.589844 232.351562 370.886719 225.253906 400.546875 211.53125 L 184.246094 211.53125 C 218.027344 227.292969 255.179688 234.445312 292.394531 232.351562 Z M 292.394531 232.351562 " style=" stroke:none;fill-rule:nonzero;fill:rgb(27.45098%,40.784314%,55.686275%);fill-opacity:1;" />
<path d="M 400.277344 508 L 409.875 467.308594 L 471.386719 491.644531 L 510.050781 507.324219 L 500.585938 547.476562 Z M 400.277344 508 " style=" stroke:none;fill-rule:nonzero;fill:rgb(27.45098%,40.784314%,55.686275%);fill-opacity:1;" />
<path d="M 494.234375 515.4375 L 466.519531 504.214844 L 419.472656 485.695312 L 416.09375 499.753906 L 490.988281 529.226562 Z M 494.234375 515.4375 " style=" stroke:none;fill-rule:nonzero;fill:rgb(27.45098%,40.784314%,55.686275%);fill-opacity:1;" />
<path d="M 76.09375 506.785156 L 176.402344 467.308594 L 186.003906 508 L 85.691406 547.476562 Z M 76.09375 506.785156 " style=" stroke:none;fill-rule:nonzero;fill:rgb(27.45098%,40.784314%,55.686275%);fill-opacity:1;" />
<path d="M 170.050781 499.753906 L 166.804688 485.695312 L 91.910156 515.167969 L 95.289062 529.226562 Z M 170.050781 499.753906 " style=" stroke:none;fill-rule:nonzero;fill:rgb(27.45098%,40.784314%,55.686275%);fill-opacity:1;" />
<path d="M 334.441406 766.480469 L 318.21875 565.726562 L 324.707031 561.265625 C 329.238281 558.25 331.96875 553.179688 332.007812 547.746094 L 332.007812 520.707031 C 332.007812 511.675781 324.679688 504.351562 315.648438 504.351562 L 269.144531 504.351562 C 260.113281 504.351562 252.785156 511.675781 252.785156 520.707031 L 252.785156 547.746094 C 252.828125 553.179688 255.558594 558.25 260.085938 561.265625 L 266.574219 565.726562 L 250.351562 766.886719 L 29.722656 766.886719 C 20.695312 766.886719 13.367188 759.558594 13.367188 750.527344 L 13.367188 542.203125 C 13.367188 538.148438 14.988281 528.683594 29.316406 525.84375 L 61.492188 512.328125 L 76.09375 506.78125 L 85.691406 547.339844 L 186 507.863281 L 176.132812 465.820312 L 223.449219 446.488281 L 229.128906 449.867188 C 268.074219 473.1875 316.714844 473.1875 355.664062 449.867188 L 361.34375 446.488281 L 410.011719 466.363281 L 400.546875 508 L 500.855469 547.476562 L 510.320312 506.917969 L 555.066406 525.167969 C 569.9375 527.601562 571.425781 537.46875 571.425781 541.527344 L 571.425781 750.125 C 571.425781 759.152344 564.097656 766.480469 555.066406 766.480469 Z M 334.441406 766.480469 " style=" stroke:none;fill-rule:nonzero;fill:rgb(100%,100%,100%);fill-opacity:1;" />
<path d="M 549.929688 538.6875 L 519.511719 526.25 L 513.699219 550.992188 C 511.984375 558.25 504.695312 562.75 497.4375 561.035156 C 496.800781 560.886719 496.191406 560.695312 495.585938 560.453125 L 395.273438 520.980469 C 388.8125 518.519531 385.257812 511.570312 387.027344 504.890625 L 394.195312 474.609375 L 362.289062 461.089844 C 319.152344 486.828125 265.371094 486.828125 222.234375 461.089844 L 191.679688 473.527344 L 198.980469 504.351562 C 200.523438 510.90625 197.007812 517.585938 190.734375 520.03125 L 90.425781 559.507812 C 88.828125 560.144531 87.140625 560.453125 85.421875 560.453125 C 79.015625 560.628906 73.375 556.277344 71.902344 550.042969 L 66.496094 525.167969 L 34.726562 538.6875 C 31.617188 539.90625 26.75 538.6875 26.75 542.609375 L 26.75 750.125 C 26.75 751.691406 28.019531 752.964844 29.589844 752.964844 L 116.652344 752.964844 L 116.652344 714.433594 C 116.652344 706.972656 122.707031 700.914062 130.171875 700.914062 C 137.632812 700.914062 143.691406 706.972656 143.691406 714.433594 L 143.691406 753.097656 L 238.324219 753.097656 L 251.84375 572.082031 C 243.488281 566.617188 238.402344 557.332031 238.324219 547.339844 L 238.324219 520.304688 C 238.324219 503.796875 251.691406 490.425781 268.199219 490.425781 L 314.570312 490.425781 C 331.074219 490.425781 344.445312 503.796875 344.445312 520.304688 L 344.445312 547.339844 C 344.363281 557.332031 339.28125 566.617188 330.925781 572.082031 L 346.472656 752.964844 L 441.105469 752.964844 L 441.105469 714.433594 C 441.105469 706.972656 447.164062 700.914062 454.625 700.914062 C 462.089844 700.914062 468.144531 706.972656 468.144531 714.433594 L 468.144531 753.097656 L 554.53125 753.097656 C 556.097656 753.097656 557.371094 751.828125 557.371094 750.257812 L 557.371094 542.203125 C 557.90625 538.6875 553.039062 539.636719 549.929688 538.6875 Z M 549.929688 538.6875 " style=" stroke:none;fill-rule:nonzero;fill:rgb(100%,100%,100%);fill-opacity:1;" />
<path d="M 269.144531 504.351562 L 315.648438 504.351562 C 324.679688 504.351562 332.007812 511.679688 332.007812 520.707031 L 332.007812 547.339844 C 332.007812 556.371094 324.679688 563.699219 315.648438 563.699219 L 269.144531 563.699219 C 260.113281 563.699219 252.785156 556.371094 252.785156 547.339844 L 252.785156 520.707031 C 252.785156 511.679688 260.113281 504.351562 269.144531 504.351562 Z M 269.144531 504.351562 " style=" stroke:none;fill-rule:nonzero;fill:rgb(27.45098%,40.784314%,55.686275%);fill-opacity:1;" />
<path d="M 269.144531 517.871094 L 315.648438 517.871094 C 317.21875 517.871094 318.488281 519.140625 318.488281 520.707031 L 318.488281 547.339844 C 318.488281 548.910156 317.21875 550.179688 315.648438 550.179688 L 269.144531 550.179688 C 267.574219 550.179688 266.304688 548.910156 266.304688 547.339844 L 266.304688 520.707031 C 266.304688 519.140625 267.574219 517.871094 269.144531 517.871094 Z M 269.144531 517.871094 " style=" stroke:none;fill-rule:nonzero;fill:rgb(27.45098%,40.784314%,55.686275%);fill-opacity:1;" />
<path d="M 250.351562 766.480469 L 266.710938 563.699219 L 318.082031 563.699219 L 334.441406 766.480469 Z M 250.351562 766.480469 " style=" stroke:none;fill-rule:nonzero;fill:rgb(27.45098%,40.784314%,55.686275%);fill-opacity:1;" />
<path d="M 279.148438 577.21875 L 264.953125 752.964844 L 319.839844 752.964844 L 305.644531 577.21875 Z M 279.148438 577.21875 " style=" stroke:none;fill-rule:nonzero;fill:rgb(27.45098%,40.784314%,55.686275%);fill-opacity:1;" />
<path d="M 558.179688 512.460938 L 517.621094 495.96875 C 516.757812 495.265625 515.796875 494.671875 514.78125 494.210938 L 476.386719 479.070312 L 387.976562 442.839844 C 407.550781 425.453125 423.488281 404.363281 434.886719 380.789062 C 458.949219 382.679688 484.363281 361.996094 494.773438 329.820312 C 506.535156 293.589844 494.773438 258.171875 467.734375 248.707031 C 465.234375 247.898438 462.652344 247.355469 460.03125 247.085938 C 460.03125 232.753906 458.8125 220.046875 457.730469 208.828125 C 479.269531 193.457031 498.234375 174.800781 513.972656 153.535156 C 518.148438 147.355469 516.527344 138.945312 510.347656 134.757812 C 509.535156 134.203125 508.65625 133.742188 507.75 133.390625 C 477.605469 121.359375 459.488281 71.339844 455.164062 53.089844 C 453.636719 46.910156 448.011719 42.625 441.644531 42.816406 C 391.691406 47.777344 341.699219 33.785156 301.589844 3.609375 C 296.398438 -1.203125 288.394531 -1.203125 283.203125 3.609375 C 283.203125 3.609375 233.316406 48.761719 143.6875 43.355469 C 137.320312 43.167969 131.695312 47.453125 130.167969 53.628906 C 125.707031 71.878906 107.726562 121.222656 77.578125 133.929688 C 70.644531 136.675781 67.238281 144.542969 69.996094 151.480469 C 70.359375 152.382812 70.820312 153.265625 71.359375 154.074219 C 87.042969 175.328125 105.984375 193.996094 127.464844 209.367188 C 126.25 220.992188 125.4375 233.429688 125.167969 247.625 C 122.542969 247.910156 119.976562 248.449219 117.460938 249.25 C 90.421875 258.035156 78.390625 293.320312 90.421875 329.6875 C 100.832031 361.726562 126.113281 382.003906 150.3125 380.652344 C 161.695312 404.269531 177.632812 425.398438 197.222656 442.839844 L 71.902344 494.078125 L 27.425781 512.328125 C 12.09375 513.785156 0.386719 526.667969 0.386719 542.066406 L 0.386719 750.125 C 0.453125 766.589844 13.796875 779.933594 30.261719 780 L 555.066406 780 C 571.535156 779.933594 584.875 766.589844 584.945312 750.125 L 584.945312 542.203125 C 584.957031 526.898438 573.414062 514.058594 558.179688 512.460938 Z M 419.472656 485.425781 L 466.519531 503.945312 L 494.234375 515.300781 L 490.988281 528.820312 L 416.09375 499.347656 Z M 103.132812 150.5625 C 131.792969 129.878906 147.339844 89.996094 153.421875 70.800781 L 158.964844 70.800781 C 206.714844 71.585938 253.515625 57.402344 292.800781 30.242188 C 333.601562 58.578125 382.542969 72.828125 432.183594 70.800781 C 438.265625 89.996094 453.8125 129.742188 482.472656 150.5625 C 471.320312 163.1875 458.910156 174.640625 445.429688 184.765625 L 139.769531 184.765625 C 126.464844 174.597656 114.191406 163.132812 103.132812 150.5625 Z M 400.546875 211.9375 C 370.886719 225.660156 338.589844 232.757812 305.914062 232.757812 L 292.394531 232.757812 C 255.164062 234.8125 218.015625 227.621094 184.242188 211.800781 Z M 170.726562 359.699219 C 167.765625 352.84375 159.800781 349.695312 152.949219 352.65625 C 152.828125 352.710938 152.71875 352.75 152.609375 352.804688 L 150.988281 353.617188 C 140.171875 356.320312 123.949219 344.152344 116.515625 321.710938 C 109.078125 299.269531 115.839844 278.855469 126.382812 275.339844 C 129.234375 274.4375 132.316406 274.4375 135.171875 275.339844 C 142.296875 277.585938 149.878906 273.625 152.125 266.5 C 152.527344 265.203125 152.746094 263.851562 152.746094 262.5 C 152.746094 248.980469 152.746094 236.949219 154.097656 225.996094 C 192.734375 248.128906 236.523438 259.6875 281.039062 259.523438 L 306.457031 259.523438 C 350.933594 259.671875 394.667969 248.101562 433.261719 225.996094 C 433.9375 236.949219 434.480469 248.84375 434.613281 262.5 C 434.640625 269.960938 440.726562 275.992188 448.1875 275.964844 C 449.539062 275.964844 450.890625 275.746094 452.1875 275.339844 C 455 274.4375 458.03125 274.4375 460.839844 275.339844 C 471.523438 278.855469 478.28125 298.730469 470.84375 321.710938 C 463.410156 344.691406 446.105469 356.859375 436.777344 353.886719 L 434.75 352.804688 C 427.976562 349.65625 419.933594 352.589844 416.785156 359.363281 C 416.730469 359.46875 416.675781 359.59375 416.632812 359.699219 C 391.625 417.832031 344.578125 454.332031 293.882812 454.332031 C 243.1875 454.332031 194.652344 417.695312 169.644531 359.566406 Z M 167.886719 485.695312 L 171.265625 499.214844 L 95.289062 529.226562 L 91.910156 515.707031 Z M 265.359375 752.964844 L 279.554688 577.21875 L 306.589844 577.21875 L 320.785156 752.964844 Z M 266.710938 547.339844 L 266.710938 520.304688 C 266.710938 518.734375 267.980469 517.464844 269.550781 517.464844 L 315.917969 517.464844 C 317.488281 517.464844 318.757812 518.734375 318.757812 520.304688 L 318.757812 547.339844 C 318.757812 548.910156 317.488281 550.179688 315.917969 550.179688 L 269.144531 550.179688 C 267.574219 550.179688 266.304688 548.910156 266.304688 547.339844 Z M 558.3125 750.125 C 558.3125 751.691406 557.042969 752.964844 555.472656 752.964844 L 468.140625 752.964844 L 468.140625 714.433594 C 468.140625 706.972656 462.085938 700.914062 454.621094 700.914062 C 447.160156 700.914062 441.105469 706.972656 441.105469 714.433594 L 441.105469 753.097656 L 346.472656 753.097656 L 332.953125 572.082031 C 341.304688 566.617188 346.390625 557.332031 346.472656 547.339844 L 346.472656 520.304688 C 346.472656 503.796875 333.101562 490.425781 316.59375 490.425781 L 269.144531 490.425781 C 252.636719 490.425781 239.265625 503.796875 239.265625 520.304688 L 239.265625 547.339844 C 239.347656 557.332031 244.429688 566.617188 252.785156 572.082031 L 238.320312 752.964844 L 143.6875 752.964844 L 143.6875 714.433594 C 143.6875 706.972656 137.632812 700.914062 130.167969 700.914062 C 122.707031 700.914062 116.648438 706.972656 116.648438 714.433594 L 116.648438 753.097656 L 29.722656 753.097656 C 28.152344 753.097656 26.882812 751.828125 26.882812 750.257812 L 26.882812 542.203125 C 26.882812 538.824219 31.75 539.636719 34.859375 538.285156 L 66.628906 524.765625 L 72.578125 550.042969 C 74.292969 557.304688 81.582031 561.804688 88.839844 560.089844 C 89.460938 559.941406 90.082031 559.75 90.691406 559.507812 L 191 520.035156 C 197.273438 517.585938 200.789062 510.90625 199.246094 504.351562 L 191.949219 473.527344 L 222.5 461.089844 C 265.640625 486.832031 319.417969 486.832031 362.554688 461.089844 L 394.460938 474.609375 L 387.027344 504.890625 C 385.484375 511.449219 389 518.128906 395.273438 520.574219 L 495.175781 560.050781 C 496.773438 560.683594 498.460938 560.996094 500.179688 560.996094 C 506.585938 561.171875 512.222656 556.820312 513.699219 550.585938 L 519.511719 525.847656 L 549.929688 538.285156 C 553.039062 539.5 557.90625 538.285156 557.90625 542.203125 Z M 558.3125 750.125 " style=" stroke:none;fill-rule:nonzero;fill:rgb(0%,0%,0%);fill-opacity:1;" />
<path d="M 292.394531 168.8125 C 334.167969 161.242188 339.984375 95 339.984375 95 C 321.8125 90.402344 305.304688 80.734375 292.394531 67.148438 C 279.484375 80.734375 262.980469 90.402344 244.808594 95 C 244.808594 95 250.621094 161.375 292.394531 168.8125 Z M 292.394531 168.8125 " style=" stroke:none;fill-rule:nonzero;fill:rgb(0%,0%,0%);fill-opacity:1;" />
</g>
</svg>